# xmcd
#
# Track frame offsets:
#	150
#	13728
#	30219
#	45456
#	64135
#	86550
#	103091
#	118697
#	135895
#	155371
#	170364
#	191016
#
# Disc length: 2748 seconds
# Revision: 0
# Processed by: cddbd v1.5.2PL0 Copyright (c) Steve Scherf et al.
# Submitted via: dBpowerAMP V12.0
#
DISCID=8e0aba0c
DTITLE=Rob Wilson - The Real Deal
DYEAR=2007
DGENRE=Country
TTITLE0=The Real Deal
TTITLE1=Your My Home
TTITLE2=It's Not Like in The Movies
TTITLE3=You're The One
TTITLE4=She's Leavin
TTITLE5=Whats a Man Gotta Do
TTITLE6=The Great Australian Spirit
TTITLE7=Blown Away
TTITLE8=Bullet Proof Vest
TTITLE9=High on Country Life
TTITLE10=Free Bird
TTITLE11=Down at The Horseshoe Bend
EXTD=
EXTT0=
EXTT1=
EXTT2=
EXTT3=
EXTT4=
EXTT5=
EXTT6=
EXTT7=
EXTT8=
EXTT9=
EXTT10=
EXTT11=
PLAYORDER=
